<?xml version="1.0" encoding="UTF-8"?>
<svg id="Layer_2" xmlns="http://www.w3.org/2000/svg" viewBox="0 0 411.09 81.53">
  <defs>
    <style>
      .cls-1 {
        fill: #e24333;
      }
    </style>
  </defs>
  <g id="Layer_1-2" data-name="Layer_1">
    <g>
      <rect class="cls-1" x="127.3" y="1.37" width="19.34" height="78.81"/>
      <rect class="cls-1" x="258.36" y="1.35" width="19.37" height="78.81"/>
      <path class="cls-1" d="M378.88,32.13h31.08l-.03,16.97h-31.67c2.28,6.61,8.01,14.83,19.61,14.83,5.35,0,9.9-1.62,12.83-3.59v18.49c-3.64,1.63-7.93,2.7-13.04,2.7-21.94,0-40.94-16.3-40.94-40.78S375.82,0,396.51,0c5.46,0,10.84.58,14.59,2.07v18.94c-5.24-3.06-9.13-3.58-12.91-3.58-10.13,0-17.97,7.93-19.31,14.7"/>
      <path class="cls-1" d="M122.7,61.92v18.24c-14.67-1.47-26.1-7.34-32.7-16.56v16.67h-19.39V1.34h8.38c26.73,0,40.77,10.48,40.77,28.51,0,10.48-4.82,18.13-14.78,23.27,3.98,5.87,9.96,8.17,17.71,8.8M101.01,29.96c0-5.87-4.72-9.54-11.01-9.54v20.12c5.56-1.36,11.01-4.51,11.01-10.59"/>
      <path class="cls-1" d="M175.83,57.84v22.43h-19.39V1.34h8.38c26.73,0,42.48,10.48,42.48,28.51,0,15.41-11.87,25.37-31.47,27.99M186.84,29.96c0-5.87-4.72-9.54-11.01-9.54v19.08c6.29,0,11.01-3.67,11.01-9.54"/>
      <path class="cls-1" d="M26.4,1.35C1.27,1.35,0,1.35,0,1.35v78.81s27.96,0,27.96,0c22.53,0,37.96-19.88,37.96-39.82S53.29,1.35,26.4,1.35M23.73,62.38h-4.15V18.3h6.19c10.47,0,20.35,8.65,20.35,22.04,0,12.23-9.1,22.04-22.39,22.04"/>
      <path class="cls-1" d="M313.84,1.35c-25.12,0-26.39,0-26.39,0v78.81s27.96,0,27.96,0c22.53,0,37.96-19.88,37.96-39.82S340.73,1.35,313.84,1.35M311.17,62.38h-4.15V18.3h6.19c10.47,0,20.35,8.65,20.35,22.04,0,12.23-9.1,22.04-22.39,22.04"/>
      <path class="cls-1" d="M252.67,1.35h-17.86c-17.31,0-24.71,8.3-24.71,18.81,0,9.82,5.05,15.05,14.51,24.05,6.85,6.52,9.21,8.82,9.21,13.31,0,2.97-2.68,4.87-6.12,4.87h-19.31v17.78h22.33c14.64,0,23.09-7.91,23.09-21.01,0-8.83-3.95-15-12.77-24.01-6.99-7.14-11-9.82-11-12.44,0-2.89,2.09-4.34,5.98-4.34h16.65V1.35Z"/>
    </g>
  </g>
</svg>