<?xml version="1.0" encoding="UTF-8"?>
<svg id="Layer_2" xmlns="http://www.w3.org/2000/svg" viewBox="0 0 319.53 136.14">
  <defs>
    <style>
      .cls-1 {
        fill: #f4f4ed;
      }
    </style>
  </defs>
  <g id="Layer_1-2" data-name="Layer_1">
    <path class="cls-1" d="M316.2,67.85c-14.66-2.94-29.6-4.26-44.29-4.44-.05-.27-.11-.53-.18-.8-1.35-5.21-6.05-10.13-13.6-14.21-9.54-5.16-24.12-9.24-42.74-10.3,1.84-3.57,2.55-7.19,2.09-10.79-.45-3.51-2.64-6.65-6.52-9.34-1.02-.71-2.17-1.39-3.44-2.04,12.43-2.4,25.58-2.64,39.02.21,2.24.48,4.44-.95,4.92-3.2.48-2.24-.96-4.45-3.2-4.92-19.24-4.09-37.89-2.34-54.88,2.92-11.87-2.93-27.66-4.63-46.02-4.86-15.62-.19-37.61.62-64.7,4.45.37-1.63.73-3.27,1.08-4.92.37-1.72-.26-3.49-1.63-4.6-1.37-1.1-3.24-1.34-4.84-.61l-42.35,19.24c-2.18.99-3.25,3.47-2.48,5.73.77,2.26,3.13,3.57,5.46,3.03,11.13-2.61,21.96-4.78,32.44-6.55-5.76,22.09-13.21,42.55-24.33,66.82-13.46,2.08-27.46,3.96-41.91,5.62-2.55.29-4.38,2.6-4.09,5.15.29,2.55,2.6,4.38,5.15,4.09,12.34-1.42,24.39-3,36.1-4.73-1.61,3.36-3.28,6.8-5.03,10.33-1.14,2.3-.2,5.09,2.1,6.23.66.33,1.37.48,2.06.48,1.71,0,3.36-.95,4.17-2.59,2.76-5.57,5.35-10.95,7.78-16.16,33.28-5.29,63.4-11.79,88.73-19.2,40.49-11.85,59.34-23.28,68.08-31.73,17.14.17,32.98,3,45.02,9.51,4.54,2.46,7.74,5.21,9.02,7.73-30.62.53-59.6,5.68-81.74,11-38.65,9.29-75.99,24.2-92.91,37.1-6.04,4.6-9.1,8.73-9.38,12.61-.18,2.6.98,5.03,3.26,6.84,4.42,3.5,14.45,5.15,27.57,5.15,22.6,0,54.38-4.9,82.59-13.7,23.39-7.3,44.34-17.22,58.98-27.94,10.84-7.93,17.52-15.67,19.77-22.82,6.51.08,12.98.38,19.4.94-2.16.51-3.55,2.65-3.11,4.85.45,2.25,2.64,3.7,4.88,3.25l23.68-4.74c1.94-.39,3.33-2.09,3.33-4.07s-1.4-3.68-3.33-4.07M205.66,25.61c1.8,1.25,2.52,2.31,2.6,2.88.32,2.51-.68,5.27-2.99,8.21-.3.38-.62.76-.95,1.14-16.41.13-35.39,2.52-56.37,8.24,11.96-10.47,27.06-20.05,44.04-25.95,6.08,1.56,10.7,3.42,13.68,5.49M57,86.93c10.52-23.67,17.76-44.42,23.35-66.65,39.77-5.91,73.57-6.03,96.61-2.96-19.27,8.97-35.56,22.02-46.94,34.88-1.25,1.41-1.39,3.48-.35,5.05,1.04,1.57,3.01,2.24,4.79,1.63,17.94-6.08,38.81-10.63,58.96-12.15-23.87,15.18-73.54,29.78-136.41,40.21M246.68,87.81c-13.93,10.19-34.01,19.67-56.55,26.71-21.79,6.8-46.69,11.51-68.31,12.92-23.94,1.56-32.68-1.51-34.28-2.98.27-.7,1.41-2.79,6.09-6.36,21.64-16.46,95.56-44.94,168.68-46.38-2.52,4.8-7.95,10.47-15.63,16.09"/>
  </g>
</svg>