<?xml version="1.0" encoding="UTF-8"?>
<svg id="Layer_2" xmlns="http://www.w3.org/2000/svg" viewBox="0 0 315.93 76">
  <defs>
    <style>
      .cls-1 {
        fill: #e24333;
      }
    </style>
  </defs>
  <g id="Layer_1-2" data-name="Layer_1">
    <g>
      <path class="cls-1" d="M119.59,18.5c0-9.26-17.84-15.76-37.72-15.76h-21.69l-12.23,31.64h34.14c20.85,0,37.5-6.61,37.5-15.87"/>
      <path class="cls-1" d="M315.93,29c-1.59,12.66-33.93,20.44-75.84,20.08-57.7-.49-74.22-10.21-75.69-22.87-1.04,12.77-27.05,22.08-85.67,22.08H0v26.82h82.34c61.45,0,82.05-11.18,82.05-19.47,0,7.24,19.13,20.36,75.76,20.36,62.6,0,75.77-15.93,75.77-21.11,0-5.65-.02-25.46,0-25.9"/>
      <path class="cls-1" d="M238.48,34.07c24.07,0,33.25-2.23,33.25-5.84,0-4.15-14.47-6.3-44.25-8.07-30.44-1.81-50.37-6.82-50.37-12.52v18.09h31.86c0,3.34,5.43,8.35,29.5,8.35"/>
      <path class="cls-1" d="M239.59,8.93c16.01,1.15,45.48,1.79,62.11,7.49l.33-11.01h-38.11c0-2.76-8.55-5.42-24.61-5.42s-23,1.61-23,3.99,5.25,3.65,23.28,4.94"/>
    </g>
  </g>
</svg>